<?xml version="1.0" standalone="no"?>
<!DOCTYPE svg PUBLIC "-//W3C//DTD SVG 20010904//EN"
 "http://www.w3.org/TR/2001/REC-SVG-20010904/DTD/svg10.dtd">
<svg version="1.0" xmlns="http://www.w3.org/2000/svg"
 width="372.000000pt" height="372.000000pt" viewBox="0 0 372.000000 372.000000"
 preserveAspectRatio="xMidYMid meet">
<metadata>
Created by potrace 1.14, written by Peter Selinger 2001-2017
</metadata>
<g transform="translate(0.000000,372.000000) scale(0.100000,-0.100000)"
fill="#000000" stroke="none">
<path d="M1845 3696 c-11 -7 -96 -57 -190 -111 -93 -54 -171 -99 -173 -100 -2
-2 148 -266 334 -586 185 -321 346 -600 357 -619 10 -19 36 -64 57 -100 21
-36 47 -81 58 -100 11 -19 102 -177 202 -350 101 -173 188 -324 194 -336 11
-20 19 -16 213 95 l201 116 20 65 c11 36 57 187 101 335 45 149 88 288 95 310
8 22 35 111 61 197 l47 157 -35 58 c-19 32 -92 157 -162 278 -70 121 -130 223
-133 227 -5 5 -616 151 -767 183 -11 3 -32 7 -47 11 -16 3 -28 3 -28 0 0 -7
299 -527 309 -539 4 -4 93 -28 197 -54 104 -26 191 -48 193 -50 4 -3 -16 -72
-94 -333 -26 -85 -53 -177 -60 -204 -16 -57 -23 -66 -36 -46 -5 8 -189 328
-410 710 -488 845 -461 800 -474 799 -5 0 -19 -6 -30 -13z"/>
<path d="M1045 2735 c-457 -108 -647 -154 -650 -157 -1 -2 -75 -130 -164 -285
l-162 -282 44 -143 c24 -79 82 -266 127 -415 l83 -272 32 52 c164 275 287 500
282 520 -3 12 -27 99 -54 192 -44 149 -48 171 -34 177 15 7 283 73 327 81 10
2 72 16 137 32 64 15 120 26 122 23 3 -3 -186 -338 -421 -744 -234 -407 -432
-751 -439 -765 l-14 -26 194 -111 c107 -62 199 -112 204 -112 7 0 131 207 266
445 13 22 157 272 320 555 164 283 348 603 410 710 62 107 138 238 168 290 42
72 53 98 44 106 -28 27 -382 224 -401 223 -12 0 -201 -43 -421 -94z"/>
<path d="M1230 1238 c-1 -24 -1 -130 -1 -236 l0 -192 65 -68 c35 -37 79 -83
96 -102 18 -19 86 -91 150 -160 65 -69 132 -141 150 -160 136 -147 259 -277
277 -293 21 -19 37 -20 349 -20 l327 1 45 48 c24 27 79 85 121 130 42 44 122
130 177 190 56 60 133 143 172 184 39 41 67 77 62 80 -4 3 -147 5 -316 4
l-308 -1 -138 -141 c-76 -78 -140 -142 -142 -142 -5 0 3 -9 -176 181 -209 221
-250 265 -250 271 0 3 388 5 863 6 474 0 872 1 885 1 l22 1 0 230 0 230 -1215
0 -1215 0 0 -42z"/>
</g>
</svg>
